<?xml version="1.0" standalone="no"?>
<!DOCTYPE svg PUBLIC "-//W3C//DTD SVG 20010904//EN"
 "http://www.w3.org/TR/2001/REC-SVG-20010904/DTD/svg10.dtd">
<svg version="1.0" xmlns="http://www.w3.org/2000/svg"
 width="120.000000pt" height="61.000000pt" viewBox="0 0 120.000000 61.000000"
 preserveAspectRatio="xMidYMid meet">

<g transform="translate(0.000000,61.000000) scale(0.100000,-0.100000)"
fill="#000000" stroke="none">
<path d="M40 305 l0 -255 35 0 35 0 0 255 0 255 -35 0 -35 0 0 -255z"/>
<path d="M342 400 l-23 -30 101 0 100 0 0 -130 0 -130 -60 0 -60 0 0 65 c0 61
1 65 23 65 13 0 38 15 57 35 l34 35 -60 0 c-55 0 -63 -3 -92 -33 -30 -31 -32
-38 -32 -102 0 -61 3 -72 27 -97 37 -39 95 -39 135 -1 l28 27 0 -27 c0 -24 4
-27 35 -27 l35 0 0 163 0 163 -28 27 c-26 25 -34 27 -113 27 -83 0 -86 -1
-107 -30z"/>
<path d="M700 240 l0 -190 35 0 35 0 0 160 0 160 55 0 55 0 0 -160 0 -160 35
0 35 0 0 160 0 160 55 0 55 0 0 -160 0 -160 40 0 40 0 0 158 0 158 -33 32
c-27 26 -41 32 -77 32 -30 0 -50 -6 -65 -20 l-22 -20 -18 20 c-28 31 -91 27
-127 -7 l-28 -27 0 27 c0 24 -4 27 -35 27 l-35 0 0 -190z"/>
</g>
</svg>
